<svg width="15" height="16" viewBox="0 0 15 16" fill="none" xmlns="http://www.w3.org/2000/svg">
<path d="M12.6923 0.327148H2.30769C1.69586 0.327817 1.10928 0.571162 0.676645 1.00379C0.244014 1.43643 0.000668097 2.02301 0 2.63484V13.0195C0.000668097 13.6313 0.244014 14.2179 0.676645 14.6505C1.10928 15.0831 1.69586 15.3265 2.30769 15.3271H12.6923C13.3041 15.3265 13.8907 15.0831 14.3234 14.6505C14.756 14.2179 14.9993 13.6313 15 13.0195V2.63484C14.9993 2.02301 14.756 1.43643 14.3234 1.00379C13.8907 0.571162 13.3041 0.327817 12.6923 0.327148ZM11.4032 5.31357L6.55709 11.0828C6.50393 11.1461 6.43779 11.1973 6.36313 11.2328C6.28848 11.2683 6.20706 11.2874 6.1244 11.2887H6.11466C6.0338 11.2887 5.95385 11.2716 5.87999 11.2387C5.80613 11.2058 5.74002 11.1577 5.68594 11.0976L3.60901 8.78989C3.55627 8.73394 3.51524 8.66802 3.48833 8.59599C3.46143 8.52396 3.44919 8.44728 3.45235 8.37046C3.4555 8.29363 3.47398 8.21821 3.50669 8.14863C3.53941 8.07905 3.58571 8.01671 3.64286 7.96528C3.70002 7.91384 3.76688 7.87435 3.83951 7.84913C3.91214 7.8239 3.98909 7.81345 4.06582 7.81839C4.14255 7.82332 4.21752 7.84354 4.28632 7.87787C4.35512 7.91219 4.41637 7.95992 4.46647 8.01825L6.09952 9.83268L10.5198 4.5715C10.619 4.45686 10.7593 4.38585 10.9104 4.37381C11.0614 4.36177 11.2112 4.40967 11.3273 4.50716C11.4433 4.60465 11.5163 4.74389 11.5306 4.89479C11.5448 5.04568 11.499 5.19612 11.4032 5.31357Z" fill="#4D4D4D"/>
</svg>
