<svg width="20" height="21" viewBox="0 0 20 21" fill="none" xmlns="http://www.w3.org/2000/svg">
<path d="M15.8333 9.6665H4.16667C3.24619 9.6665 2.5 10.4127 2.5 11.3332V17.1665C2.5 18.087 3.24619 18.8332 4.16667 18.8332H15.8333C16.7538 18.8332 17.5 18.087 17.5 17.1665V11.3332C17.5 10.4127 16.7538 9.6665 15.8333 9.6665Z" stroke="#242B63" stroke-width="1.5" stroke-linecap="round" stroke-linejoin="round"/>
<path d="M5.8335 9.6665V6.33317C5.8335 5.2281 6.27248 4.16829 7.05388 3.38689C7.83529 2.60549 8.89509 2.1665 10.0002 2.1665C11.1052 2.1665 12.165 2.60549 12.9464 3.38689C13.7278 4.16829 14.1668 5.2281 14.1668 6.33317V9.6665" stroke="#242B63" stroke-width="1.5" stroke-linecap="round" stroke-linejoin="round"/>
</svg>
