<svg width="55" height="55" viewBox="0 0 55 55" fill="none" xmlns="http://www.w3.org/2000/svg">
<path d="M32.0719 28.2292C31.8969 28.2292 31.7146 28.2 31.5396 28.1417C31.2109 28.037 30.9244 27.8296 30.7223 27.5501C30.5202 27.2705 30.413 26.9335 30.4167 26.5885V24.5396C28.7688 24.2771 27.5 22.8406 27.5 21.1198V16.3802C27.5 14.4698 29.0531 12.9167 30.9635 12.9167H39.349C41.2594 12.9167 42.8125 14.4698 42.8125 16.3802V21.1198C42.8125 23.0302 41.2594 24.5833 39.349 24.5833H35.6156L33.3698 27.5729C33.049 27.9958 32.575 28.2292 32.0719 28.2292ZM30.9635 14.7396C30.0594 14.7396 29.3229 15.476 29.3229 16.3802V21.1198C29.3229 22.0239 30.0594 22.7604 30.9635 22.7604H32.2396V26.0417L34.7042 22.7604H39.3562C40.2604 22.7604 40.9969 22.0239 40.9969 21.1198V16.3802C40.9969 15.476 40.2604 14.7396 39.3562 14.7396H30.9635ZM21.6667 30.0521C18.6479 30.0521 16.1979 27.6021 16.1979 24.5833C16.1979 21.5646 18.6479 19.1146 21.6667 19.1146C24.6854 19.1146 27.1354 21.5646 27.1354 24.5833C27.1354 27.6021 24.6854 30.0521 21.6667 30.0521ZM21.6667 20.9375C19.6542 20.9375 18.0208 22.5708 18.0208 24.5833C18.0208 26.5958 19.6542 28.2292 21.6667 28.2292C23.6792 28.2292 25.3125 26.5958 25.3125 24.5833C25.3125 22.5708 23.6792 20.9375 21.6667 20.9375ZM12.1875 35.3677C12.1875 35.4333 12.2969 42.0833 21.6667 42.0833C31.0365 42.0833 31.1458 35.4333 31.1458 35.3677V34.6094C31.1458 33.1 29.9208 31.875 28.4115 31.875H14.9219C13.4125 31.875 12.1875 33.1 12.1875 34.6094V35.3677ZM14.0104 34.6094C14.0104 34.1062 14.4188 33.6979 14.9219 33.6979H28.4115C28.9146 33.6979 29.3229 34.1062 29.3229 34.6094V35.3604C29.3229 35.5573 29.1625 40.2604 21.6667 40.2604C14.1708 40.2604 14.0104 35.5573 14.0104 35.3677V34.6094Z" fill="#242B63"/>
<rect x="0.5" y="0.5" width="54" height="54" rx="27" stroke="#242B63"/>
</svg>
