<svg width="100" height="100" viewBox="0 0 100 100" fill="none" xmlns="http://www.w3.org/2000/svg">
<path d="M83.4609 32.1641L61.5859 10.2891C61.2955 9.99896 60.9508 9.76891 60.5714 9.61207C60.192 9.45524 59.7855 9.37468 59.375 9.375H21.875C20.2174 9.375 18.6277 10.0335 17.4556 11.2056C16.2835 12.3777 15.625 13.9674 15.625 15.625V84.375C15.625 86.0326 16.2835 87.6223 17.4556 88.7944C18.6277 89.9665 20.2174 90.625 21.875 90.625H78.125C79.7826 90.625 81.3723 89.9665 82.5444 88.7944C83.7165 87.6223 84.375 86.0326 84.375 84.375V34.375C84.3753 33.9645 84.2948 33.558 84.1379 33.1786C83.9811 32.7992 83.751 32.4545 83.4609 32.1641ZM59.375 34.375V17.1875L76.5625 34.375H59.375Z" fill="#666666"/>
<path d="M37.6868 45.6868C37.9042 45.4691 38.1624 45.2964 38.4466 45.1785C38.7308 45.0607 39.0355 45 39.3432 45C39.6509 45 39.9555 45.0607 40.2398 45.1785C40.524 45.2964 40.7822 45.4691 40.9996 45.6868L49.5003 54.1844L58.0011 45.6868C58.2186 45.4693 58.4769 45.2967 58.7611 45.179C59.0453 45.0613 59.3499 45.0007 59.6575 45.0007C59.9651 45.0007 60.2697 45.0613 60.5539 45.179C60.8381 45.2967 61.0964 45.4693 61.3139 45.6868C61.5314 45.9043 61.704 46.1625 61.8217 46.4468C61.9394 46.731 62 47.0356 62 47.3432C62 47.6508 61.9394 47.9554 61.8217 48.2396C61.704 48.5238 61.5314 48.7821 61.3139 48.9996L52.8163 57.5003L61.3139 66.0011C61.7532 66.4404 62 67.0362 62 67.6575C62 68.2788 61.7532 68.8746 61.3139 69.3139C60.8746 69.7532 60.2788 70 59.6575 70C59.0362 70 58.4404 69.7532 58.0011 69.3139L49.5003 60.8163L40.9996 69.3139C40.5603 69.7532 39.9645 70 39.3432 70C38.7219 70 38.1261 69.7532 37.6868 69.3139C37.2475 68.8746 37.0007 68.2788 37.0007 67.6575C37.0007 67.0362 37.2475 66.4404 37.6868 66.0011L46.1844 57.5003L37.6868 48.9996C37.4691 48.7822 37.2964 48.524 37.1785 48.2398C37.0607 47.9555 37 47.6509 37 47.3432C37 47.0355 37.0607 46.7308 37.1785 46.4466C37.2964 46.1624 37.4691 45.9042 37.6868 45.6868Z" fill="#FAFAFA"/>
</svg>
