<svg width="25" height="25" viewBox="0 0 20 21" fill="none" xmlns="http://www.w3.org/2000/svg">
<path d="M2.5 5.5625H4.16667H17.5" stroke="#991D39" stroke-linecap="round" stroke-linejoin="round"/>
<path d="M15.8334 5.56283V17.2295C15.8334 17.6715 15.6578 18.0954 15.3453 18.408C15.0327 18.7206 14.6088 18.8962 14.1667 18.8962H5.83341C5.39139 18.8962 4.96746 18.7206 4.6549 18.408C4.34234 18.0954 4.16675 17.6715 4.16675 17.2295V5.56283M6.66675 5.56283V3.89616C6.66675 3.45413 6.84234 3.03021 7.1549 2.71765C7.46746 2.40509 7.89139 2.22949 8.33341 2.22949H11.6667C12.1088 2.22949 12.5327 2.40509 12.8453 2.71765C13.1578 3.03021 13.3334 3.45413 13.3334 3.89616V5.56283" stroke="#991D39" stroke-linecap="round" stroke-linejoin="round"/>
</svg>
