<svg width="51" height="50" viewBox="0 0 51 50" fill="none" xmlns="http://www.w3.org/2000/svg">
<path fill-rule="evenodd" clip-rule="evenodd" d="M50.5 25C50.5 11.1925 39.3075 0 25.5 0C11.6925 0 0.5 11.1925 0.5 25C0.5 38.8075 11.6925 50 25.5 50C39.3075 50 50.5 38.8075 50.5 25ZM25.5 10.625C25.9973 10.625 26.4742 10.8225 26.8258 11.1742C27.1775 11.5258 27.375 12.0027 27.375 12.5V27.5C27.375 27.9973 27.1775 28.4742 26.8258 28.8258C26.4742 29.1775 25.9973 29.375 25.5 29.375C25.0027 29.375 24.5258 29.1775 24.1742 28.8258C23.8225 28.4742 23.625 27.9973 23.625 27.5V12.5C23.625 12.0027 23.8225 11.5258 24.1742 11.1742C24.5258 10.8225 25.0027 10.625 25.5 10.625ZM25.5 37.5C26.163 37.5 26.7989 37.2366 27.2678 36.7678C27.7366 36.2989 28 35.663 28 35C28 34.337 27.7366 33.7011 27.2678 33.2322C26.7989 32.7634 26.163 32.5 25.5 32.5C24.837 32.5 24.2011 32.7634 23.7322 33.2322C23.2634 33.7011 23 34.337 23 35C23 35.663 23.2634 36.2989 23.7322 36.7678C24.2011 37.2366 24.837 37.5 25.5 37.5Z" fill="#C18031"/>
</svg>
