<svg width="55" height="56" viewBox="0 0 55 56" fill="none" xmlns="http://www.w3.org/2000/svg">
<rect x="0.5" y="1.0625" width="54" height="54" rx="27" fill="#242B63"/>
<rect x="0.5" y="1.0625" width="54" height="54" rx="27" stroke="#242B63"/>
<rect width="35" height="35" transform="translate(10 10.5625)" fill="#242B63"/>
<path d="M32.0719 28.792C31.8969 28.792 31.7146 28.7628 31.5396 28.7045C31.2109 28.5998 30.9244 28.3925 30.7223 28.1129C30.5202 27.8333 30.413 27.4963 30.4167 27.1514V25.1024C28.7688 24.8399 27.5 23.4035 27.5 21.6826V16.943C27.5 15.0326 29.0531 13.4795 30.9635 13.4795H39.349C41.2594 13.4795 42.8125 15.0326 42.8125 16.943V21.6826C42.8125 23.593 41.2594 25.1462 39.349 25.1462H35.6156L33.3698 28.1357C33.049 28.5587 32.575 28.792 32.0719 28.792ZM30.9635 15.3024C30.0594 15.3024 29.3229 16.0389 29.3229 16.943V21.6826C29.3229 22.5868 30.0594 23.3232 30.9635 23.3232H32.2396V26.6045L34.7042 23.3232H39.3562C40.2604 23.3232 40.9969 22.5868 40.9969 21.6826V16.943C40.9969 16.0389 40.2604 15.3024 39.3562 15.3024H30.9635ZM21.6667 30.6149C18.6479 30.6149 16.1979 28.1649 16.1979 25.1462C16.1979 22.1274 18.6479 19.6774 21.6667 19.6774C24.6854 19.6774 27.1354 22.1274 27.1354 25.1462C27.1354 28.1649 24.6854 30.6149 21.6667 30.6149ZM21.6667 21.5003C19.6542 21.5003 18.0208 23.1337 18.0208 25.1462C18.0208 27.1587 19.6542 28.792 21.6667 28.792C23.6792 28.792 25.3125 27.1587 25.3125 25.1462C25.3125 23.1337 23.6792 21.5003 21.6667 21.5003ZM12.1875 35.9305C12.1875 35.9962 12.2969 42.6462 21.6667 42.6462C31.0365 42.6462 31.1458 35.9962 31.1458 35.9305V35.1722C31.1458 33.6628 29.9208 32.4378 28.4115 32.4378H14.9219C13.4125 32.4378 12.1875 33.6628 12.1875 35.1722V35.9305ZM14.0104 35.1722C14.0104 34.6691 14.4188 34.2607 14.9219 34.2607H28.4115C28.9146 34.2607 29.3229 34.6691 29.3229 35.1722V35.9232C29.3229 36.1201 29.1625 40.8232 21.6667 40.8232C14.1708 40.8232 14.0104 36.1201 14.0104 35.9305V35.1722Z" fill="#E6E6E6"/>
</svg>
