<svg width="56" height="56" viewBox="0 0 56 56" fill="none" xmlns="http://www.w3.org/2000/svg">
<rect x="1" y="1.0625" width="54" height="54" rx="27" fill="#242B63"/>
<rect x="1" y="1.0625" width="54" height="54" rx="27" stroke="#242B63"/>
<path d="M39.6665 20.7705H16.3332C14.7223 20.7705 13.4165 22.0763 13.4165 23.6872V38.2705C13.4165 39.8813 14.7223 41.1872 16.3332 41.1872H39.6665C41.2773 41.1872 42.5832 39.8813 42.5832 38.2705V23.6872C42.5832 22.0763 41.2773 20.7705 39.6665 20.7705Z" stroke="#E6E6E6" stroke-width="1.8" stroke-linecap="round" stroke-linejoin="round"/>
<path d="M33.8332 41.1875V17.8542C33.8332 17.0806 33.5259 16.3388 32.9789 15.7918C32.4319 15.2448 31.6901 14.9375 30.9165 14.9375H25.0832C24.3096 14.9375 23.5678 15.2448 23.0208 15.7918C22.4738 16.3388 22.1665 17.0806 22.1665 17.8542V41.1875" stroke="#E6E6E6" stroke-width="1.8" stroke-linecap="round" stroke-linejoin="round"/>
</svg>
