<svg width="45" height="45" viewBox="0 0 45 45" fill="none" xmlns="http://www.w3.org/2000/svg">
<path d="M33.8909 2.91357L41.7152 11.0698V42.0861H12.4863V42.1873H41.8151V11.1725L33.8909 2.91357Z" fill="#909090"/>
<path d="M33.7936 2.8125H12.3862V42.0863H41.715V11.0714L33.7936 2.8125Z" fill="#F4F4F4"/>
<path d="M12.171 4.92188H3.18506V14.5223H31.4507V4.92188H12.171Z" fill="#7A7B7C"/>
<path d="M31.6014 14.3595H3.36816V4.75195H31.6014V14.3595Z" fill="#DD2025"/>
<path d="M12.7296 6.37578H10.8916V13.1258H12.3372V10.8491L12.6564 10.8673C12.9666 10.862 13.2739 10.8064 13.5663 10.7028C13.8227 10.6146 14.0585 10.4754 14.2596 10.2936C14.4642 10.1204 14.6255 9.90176 14.7307 9.65516C14.8717 9.24524 14.9221 8.80958 14.8783 8.37829C14.8695 8.07019 14.8155 7.76505 14.718 7.47266C14.6292 7.26159 14.4975 7.07132 14.3312 6.91395C14.1648 6.75658 13.9676 6.63556 13.7519 6.5586C13.5655 6.4911 13.3728 6.44211 13.1768 6.41235C13.0283 6.38944 12.8784 6.37722 12.7282 6.37578M12.4624 9.60172H12.3372V7.52047H12.6086C12.7284 7.51183 12.8486 7.53022 12.9603 7.57428C13.0721 7.61834 13.1725 7.68693 13.2541 7.775C13.4233 8.00143 13.5137 8.27704 13.5114 8.55969C13.5114 8.90563 13.5114 9.21922 13.1993 9.44C12.9744 9.5637 12.7184 9.6208 12.4624 9.60172ZM17.6247 6.3575C17.4686 6.3575 17.3168 6.36875 17.2099 6.37297L16.8752 6.38141H15.7783V13.1314H17.0693C17.5626 13.1449 18.0538 13.0613 18.5149 12.8853C18.886 12.7381 19.2146 12.5008 19.4711 12.1948C19.7205 11.8861 19.8996 11.5267 19.9957 11.1416C20.1061 10.7054 20.16 10.2569 20.156 9.80703C20.1833 9.27569 20.1421 8.74305 20.0336 8.22219C19.9307 7.8388 19.7378 7.48545 19.4711 7.19141C19.2619 6.95398 19.0057 6.76246 18.7188 6.62891C18.4724 6.51489 18.2132 6.43085 17.9468 6.3786C17.8408 6.3611 17.7335 6.3531 17.6261 6.35469M17.3702 11.8911H17.2296V7.58235H17.2479C17.5378 7.54899 17.8311 7.6013 18.0916 7.73282C18.2824 7.88515 18.4378 8.07707 18.5472 8.29532C18.6653 8.52501 18.7333 8.7771 18.7469 9.035C18.7596 9.34438 18.7469 9.5975 18.7469 9.80703C18.7526 10.0484 18.7371 10.2898 18.7005 10.5284C18.6572 10.7735 18.577 11.0105 18.4629 11.2316C18.3336 11.4371 18.159 11.6103 17.9524 11.7378C17.7789 11.85 17.5734 11.9024 17.3674 11.8869M24.5111 6.38141H21.0939V13.1314H22.5396V10.4539H24.3677V9.19953H22.5396V7.63578H24.5083V6.38141" fill="#464648"/>
<path d="M30.6295 28.4837C30.6295 28.4837 35.1126 27.6709 35.1126 29.2023C35.1126 30.7337 32.3352 30.1108 30.6295 28.4837ZM27.3149 28.6005C26.6027 28.7578 25.9085 28.9883 25.2435 29.2881L25.806 28.0225C26.3685 26.7569 26.9521 25.0314 26.9521 25.0314C27.6233 26.1611 28.4043 27.2218 29.2837 28.1983C28.6205 28.2972 27.9633 28.4324 27.3149 28.6033V28.6005ZM25.5402 19.4598C25.5402 18.1253 25.972 17.7611 26.3081 17.7611C26.6442 17.7611 27.0224 17.9228 27.0351 19.0816C26.9256 20.2467 26.6816 21.3953 26.3081 22.5044C25.7964 21.5732 25.5315 20.5265 25.5388 19.4641L25.5402 19.4598ZM19.0026 34.248C17.6273 33.4253 21.8868 30.8927 22.6588 30.8111C22.6546 30.8125 20.4426 35.1086 19.0026 34.248ZM36.4218 29.3837C36.4077 29.2431 36.2812 27.6864 33.5109 27.7525C32.3562 27.7339 31.202 27.8153 30.0613 27.9958C28.9564 26.8826 28.0049 25.627 27.232 24.2622C27.7189 22.8551 28.0136 21.3887 28.1081 19.9028C28.0673 18.2153 27.6637 17.2478 26.3699 17.2619C25.0762 17.2759 24.8877 18.408 25.0579 20.0927C25.2246 21.2248 25.539 22.3301 25.9931 23.3805C25.9931 23.3805 25.3954 25.2409 24.6051 27.0916C23.8148 28.9422 23.2748 29.9125 23.2748 29.9125C21.9005 30.3599 20.6067 31.0246 19.4427 31.8812C18.284 32.9598 17.8129 33.7881 18.4232 34.6164C18.9492 35.3308 20.7899 35.4925 22.4352 33.3367C23.3095 32.2233 24.1081 31.0525 24.8259 29.8323C24.8259 29.8323 27.3346 29.1447 28.1151 28.9562C28.8956 28.7678 29.8392 28.6187 29.8392 28.6187C29.8392 28.6187 32.1299 30.9236 34.3392 30.842C36.5484 30.7605 36.4415 29.5216 36.4274 29.3866" fill="#DD2025"/>
<path d="M33.6855 2.9209V11.1798H41.607L33.6855 2.9209Z" fill="#909090"/>
<path d="M33.7935 2.8125V11.0714H41.7149L33.7935 2.8125Z" fill="#F4F4F4"/>
<path d="M12.6212 6.26787H10.7832V13.0179H12.2345V10.7426L12.5551 10.7608C12.8653 10.7555 13.1725 10.6999 13.4649 10.5963C13.7213 10.5081 13.9571 10.3689 14.1582 10.1871C14.3613 10.0134 14.5211 9.79482 14.6251 9.54866C14.7661 9.13873 14.8165 8.70308 14.7727 8.27178C14.764 7.96368 14.7099 7.65855 14.6124 7.36616C14.5237 7.15509 14.3919 6.96481 14.2256 6.80744C14.0593 6.65007 13.862 6.52906 13.6463 6.45209C13.459 6.38393 13.2654 6.33447 13.0684 6.30444C12.9199 6.28153 12.77 6.26931 12.6198 6.26787M12.354 9.49381H12.2288V7.41256H12.5016C12.6214 7.40392 12.7416 7.42231 12.8533 7.46637C12.9651 7.51043 13.0655 7.57902 13.1471 7.66709C13.3163 7.89352 13.4067 8.16913 13.4045 8.45178C13.4045 8.79772 13.4045 9.11131 13.0923 9.33209C12.8674 9.45579 12.6114 9.51149 12.3554 9.49241M17.5163 6.24959C17.3602 6.24959 17.2084 6.26084 17.1015 6.26506L16.771 6.2735H15.6741V13.0235H16.9651C17.4584 13.037 17.9496 12.9534 18.4107 12.7774C18.7818 12.6302 19.1105 12.3929 19.367 12.0869C19.6164 11.7782 19.7954 11.4187 19.8915 11.0337C20.002 10.5975 20.0558 10.149 20.0518 9.69912C20.0791 9.16778 20.038 8.63514 19.9295 8.11428C19.8265 7.73089 19.6337 7.37754 19.367 7.0835C19.1577 6.84607 18.9015 6.65455 18.6146 6.521C18.3682 6.40698 18.109 6.32294 17.8426 6.27069C17.7366 6.25319 17.6293 6.24518 17.522 6.24678M17.266 11.7832H17.1254V7.47444H17.1437C17.4336 7.44108 17.7269 7.49339 17.9874 7.62491C18.1782 7.77724 18.3336 7.96916 18.443 8.18741C18.5611 8.4171 18.6292 8.66919 18.6427 8.92709C18.6554 9.23647 18.6427 9.48959 18.6427 9.69912C18.6485 9.94049 18.6329 10.1819 18.5963 10.4205C18.553 10.6655 18.4729 10.9026 18.3587 11.1237C18.2294 11.3292 18.0548 11.5024 17.8482 11.6299C17.6747 11.7421 17.4692 11.7945 17.2632 11.779M24.4027 6.2735H20.9855V13.0235H22.4312V10.346H24.2593V9.09163H22.4312V7.52788H24.3999V6.2735" fill="white"/>
</svg>
