<svg width="56" height="55" viewBox="0 0 56 55" fill="none" xmlns="http://www.w3.org/2000/svg">
<rect x="1" y="0.5" width="54" height="54" rx="27" fill="#242B63"/>
<path d="M39.6665 20.2083H16.3332C14.7223 20.2083 13.4165 21.5142 13.4165 23.125V37.7083C13.4165 39.3192 14.7223 40.625 16.3332 40.625H39.6665C41.2773 40.625 42.5832 39.3192 42.5832 37.7083V23.125C42.5832 21.5142 41.2773 20.2083 39.6665 20.2083Z" stroke="#E6E6E6" stroke-width="1.8" stroke-linecap="round" stroke-linejoin="round"/>
<path d="M33.8332 40.625V17.2917C33.8332 16.5181 33.5259 15.7763 32.9789 15.2293C32.4319 14.6823 31.6901 14.375 30.9165 14.375H25.0832C24.3096 14.375 23.5678 14.6823 23.0208 15.2293C22.4738 15.7763 22.1665 16.5181 22.1665 17.2917V40.625" stroke="#E6E6E6" stroke-width="1.8" stroke-linecap="round" stroke-linejoin="round"/>
<rect x="1" y="0.5" width="54" height="54" rx="27" stroke="#242B63"/>
</svg>
