<svg width="24" height="24" viewBox="0 0 24 24" fill="none" xmlns="http://www.w3.org/2000/svg">
<path d="M7.1998 2.3999C6.56328 2.3999 5.95284 2.65276 5.50275 3.10285C5.05266 3.55293 4.7998 4.16338 4.7998 4.7999V19.1999C4.7998 19.8364 5.05266 20.4469 5.50275 20.897C5.95284 21.347 6.56328 21.5999 7.1998 21.5999H16.7998C17.4363 21.5999 18.0468 21.347 18.4969 20.897C18.9469 20.4469 19.1998 19.8364 19.1998 19.1999V8.8967C19.1994 8.41947 19.0095 7.96194 18.6718 7.6247L13.975 2.9267C13.6376 2.58948 13.1801 2.4 12.703 2.3999H7.1998ZM5.9998 4.7999C5.9998 4.48164 6.12623 4.17642 6.35128 3.95137C6.57632 3.72633 6.88154 3.5999 7.1998 3.5999H11.9998V7.7999C11.9998 8.27729 12.1894 8.73513 12.527 9.0727C12.8646 9.41026 13.3224 9.5999 13.7998 9.5999H17.9998V19.1999C17.9998 19.5182 17.8734 19.8234 17.6483 20.0484C17.4233 20.2735 17.1181 20.3999 16.7998 20.3999H7.1998C6.88154 20.3999 6.57632 20.2735 6.35128 20.0484C6.12623 19.8234 5.9998 19.5182 5.9998 19.1999V4.7999ZM17.7514 8.3999H13.7998C13.6407 8.3999 13.4881 8.33669 13.3755 8.22417C13.263 8.11164 13.1998 7.95903 13.1998 7.7999V3.8483L17.7514 8.3999Z" fill="#555555"/>
</svg>
