<svg width="100" height="100" viewBox="0 0 100 100" fill="none" xmlns="http://www.w3.org/2000/svg">
<g clip-path="url(#clip0_353_1627)">
<path d="M27.7778 27.7779C28.5145 27.7779 29.221 27.4852 29.742 26.9643C30.2629 26.4434 30.5556 25.7368 30.5556 25.0001V8.33344C30.5556 7.59673 30.2629 6.89019 29.742 6.36926C29.221 5.84832 28.5145 5.55566 27.7778 5.55566C27.0411 5.55566 26.3345 5.84832 25.8136 6.36926C25.2927 6.89019 25 7.59673 25 8.33344V25.0001C25 25.7368 25.2927 26.4434 25.8136 26.9643C26.3345 27.4852 27.0411 27.7779 27.7778 27.7779Z" fill="#666666"/>
<path d="M72.2221 27.7779C72.9588 27.7779 73.6654 27.4852 74.1863 26.9643C74.7072 26.4434 74.9999 25.7368 74.9999 25.0001V8.33344C74.9999 7.59673 74.7072 6.89019 74.1863 6.36926C73.6654 5.84832 72.9588 5.55566 72.2221 5.55566C71.4854 5.55566 70.7789 5.84832 70.2579 6.36926C69.737 6.89019 69.4443 7.59673 69.4443 8.33344V25.0001C69.4443 25.7368 69.737 26.4434 70.2579 26.9643C70.7789 27.4852 71.4854 27.7779 72.2221 27.7779Z" fill="#666666"/>
<path d="M89.5832 16.6668H78.4721V25.0002C78.4721 26.6209 77.8282 28.1753 76.6822 29.3214C75.5361 30.4674 73.9817 31.1113 72.361 31.1113C70.7402 31.1113 69.1858 30.4674 68.0398 29.3214C66.8937 28.1753 66.2499 26.6209 66.2499 25.0002V16.6668H33.8887V25.0002C33.8887 26.6209 33.2449 28.1753 32.0988 29.3214C30.9528 30.4674 29.3984 31.1113 27.7776 31.1113C26.1569 31.1113 24.6025 30.4674 23.4564 29.3214C22.3104 28.1753 21.6665 26.6209 21.6665 25.0002V16.6668H10.5554C9.89436 16.6593 9.23851 16.7844 8.62666 17.0348C8.01481 17.2851 7.45938 17.6556 6.99322 18.1244C6.52705 18.5931 6.15962 19.1506 5.91266 19.7639C5.6657 20.3771 5.54422 21.0336 5.5554 21.6946V83.8613C5.54437 84.5106 5.66136 85.1558 5.8997 85.7599C6.13803 86.364 6.49305 86.9152 6.94446 87.3821C7.39588 87.849 7.93484 88.2224 8.53059 88.481C9.12633 88.7395 9.76717 88.8782 10.4165 88.889H89.5832C90.2325 88.8782 90.8734 88.7395 91.4691 88.481C92.0648 88.2224 92.6038 87.849 93.0552 87.3821C93.5067 86.9152 93.8617 86.364 94.1 85.7599C94.3383 85.1558 94.4553 84.5106 94.4443 83.8613V21.6946C94.4553 21.0453 94.3383 20.4001 94.1 19.796C93.8617 19.1919 93.5067 18.6406 93.0552 18.1737C92.6038 17.7069 92.0648 17.3335 91.4691 17.0749C90.8734 16.8163 90.2325 16.6777 89.5832 16.6668Z" fill="#666666"/>
<path d="M37.7325 43.7325C37.9644 43.5003 38.2398 43.3161 38.5429 43.1904C38.8461 43.0647 39.171 43 39.4992 43C39.8273 43 40.1523 43.0647 40.4554 43.1904C40.7586 43.3161 41.034 43.5003 41.2658 43.7325L50.3325 52.7958L59.3992 43.7325C59.6312 43.5005 59.9066 43.3165 60.2097 43.1909C60.5129 43.0654 60.8377 43.0007 61.1658 43.0007C61.4939 43.0007 61.8188 43.0654 62.122 43.1909C62.4251 43.3165 62.7005 43.5005 62.9325 43.7325C63.1645 43.9645 63.3486 44.2399 63.4741 44.5431C63.5997 44.8462 63.6643 45.1711 63.6643 45.4992C63.6643 45.8273 63.5997 46.1522 63.4741 46.4553C63.3486 46.7584 63.1645 47.0338 62.9325 47.2658L53.8692 56.3325L62.9325 65.3992C63.4011 65.8677 63.6643 66.5032 63.6643 67.1658C63.6643 67.8285 63.4011 68.464 62.9325 68.9325C62.464 69.4011 61.8285 69.6643 61.1658 69.6643C60.5032 69.6643 59.8677 69.4011 59.3992 68.9325L50.3325 59.8692L41.2658 68.9325C40.7973 69.4011 40.1618 69.6643 39.4992 69.6643C38.8366 69.6643 38.2011 69.4011 37.7325 68.9325C37.264 68.464 37.0007 67.8285 37.0007 67.1658C37.0007 66.5032 37.264 65.8677 37.7325 65.3992L46.7958 56.3325L37.7325 47.2658C37.5003 47.034 37.3161 46.7586 37.1904 46.4554C37.0647 46.1523 37 45.8273 37 45.4992C37 45.171 37.0647 44.8461 37.1904 44.5429C37.3161 44.2398 37.5003 43.9644 37.7325 43.7325Z" fill="#FAFAFA"/>
</g>
<defs>
<clipPath id="clip0_353_1627">
<rect width="100" height="100" fill="white"/>
</clipPath>
</defs>
</svg>
