<svg width="100" height="100" viewBox="0 0 100 100" fill="none" xmlns="http://www.w3.org/2000/svg">
<g clip-path="url(#clip0_593_1882)">
<path fill-rule="evenodd" clip-rule="evenodd" d="M59.3747 10.4167C59.3747 10.1404 59.2649 9.87545 59.0696 9.6801C58.8742 9.48475 58.6093 9.375 58.333 9.375H29.1663C26.1274 9.375 23.2129 10.5822 21.0641 12.7311C18.9152 14.8799 17.708 17.7944 17.708 20.8333V79.1667C17.708 82.2056 18.9152 85.1201 21.0641 87.2689C23.2129 89.4178 26.1274 90.625 29.1663 90.625H70.833C73.872 90.625 76.7864 89.4178 78.9353 87.2689C81.0841 85.1201 82.2913 82.2056 82.2913 79.1667V38.1125C82.2913 37.8362 82.1816 37.5713 81.9862 37.3759C81.7909 37.1806 81.5259 37.0708 81.2497 37.0708H62.4997C61.6709 37.0708 60.876 36.7416 60.29 36.1555C59.7039 35.5695 59.3747 34.7746 59.3747 33.9458V10.4167ZM62.4997 51.0417C63.3285 51.0417 64.1233 51.3709 64.7094 51.957C65.2954 52.543 65.6247 53.3379 65.6247 54.1667C65.6247 54.9955 65.2954 55.7903 64.7094 56.3764C64.1233 56.9624 63.3285 57.2917 62.4997 57.2917H37.4997C36.6709 57.2917 35.876 56.9624 35.29 56.3764C34.7039 55.7903 34.3747 54.9955 34.3747 54.1667C34.3747 53.3379 34.7039 52.543 35.29 51.957C35.876 51.3709 36.6709 51.0417 37.4997 51.0417H62.4997ZM62.4997 67.7083C63.3285 67.7083 64.1233 68.0376 64.7094 68.6236C65.2954 69.2097 65.6247 70.0045 65.6247 70.8333C65.6247 71.6621 65.2954 72.457 64.7094 73.043C64.1233 73.6291 63.3285 73.9583 62.4997 73.9583H37.4997C36.6709 73.9583 35.876 73.6291 35.29 73.043C34.7039 72.457 34.3747 71.6621 34.3747 70.8333C34.3747 70.0045 34.7039 69.2097 35.29 68.6236C35.876 68.0376 36.6709 67.7083 37.4997 67.7083H62.4997Z" fill="#666666"/>
<path d="M65.625 11.7671C65.625 11.0004 66.4292 10.5129 67.025 10.9921C67.5292 11.4004 67.9833 11.8754 68.3708 12.4171L80.925 29.9046C81.2083 30.3046 80.9 30.8212 80.4083 30.8212H66.6667C66.3904 30.8212 66.1254 30.7115 65.9301 30.5161C65.7347 30.3208 65.625 30.0558 65.625 29.7796V11.7671Z" fill="#666666"/>
<circle cx="73.3291" cy="80" r="18.5" fill="#666666" stroke="#E6E6E6" stroke-width="3"/>
<path d="M66.3635 87.625L71.3885 80.185L66.4085 72.73H70.3235L73.4135 77.62L76.2485 72.73H80.2235L75.2885 80.11L80.2835 87.625H76.3535L73.2635 82.75L70.2935 87.625H66.3635Z" fill="#E6E6E6"/>
</g>
<defs>
<clipPath id="clip0_593_1882">
<rect width="100" height="100" fill="white"/>
</clipPath>
</defs>
</svg>
