<svg width="15" height="16" viewBox="0 0 15 16" fill="none" xmlns="http://www.w3.org/2000/svg">
<path d="M7.5 12.5146C10.0888 12.5146 12.1875 10.416 12.1875 7.82715C12.1875 5.23831 10.0888 3.13965 7.5 3.13965C4.91117 3.13965 2.8125 5.23831 2.8125 7.82715C2.8125 10.416 4.91117 12.5146 7.5 12.5146Z" fill="#4D4D4D"/>
<path d="M7.5 14.3897C6.20206 14.3897 4.93327 14.0048 3.85407 13.2837C2.77488 12.5626 1.93374 11.5377 1.43704 10.3385C0.940343 9.13937 0.810384 7.81987 1.0636 6.54687C1.31682 5.27387 1.94183 4.10454 2.85961 3.18676C3.7774 2.26898 4.94672 1.64396 6.21972 1.39075C7.49272 1.13753 8.81222 1.26749 10.0114 1.76419C11.2105 2.26089 12.2354 3.10202 12.9565 4.18122C13.6776 5.26042 14.0625 6.52921 14.0625 7.82715C14.0605 9.56703 13.3685 11.2351 12.1382 12.4653C10.9079 13.6956 9.23988 14.3877 7.5 14.3897ZM7.5 2.20215C6.38748 2.20215 5.29995 2.53205 4.37492 3.15013C3.44989 3.76822 2.72892 4.64672 2.30318 5.67456C1.87744 6.70239 1.76604 7.83339 1.98309 8.92453C2.20013 10.0157 2.73586 11.018 3.52253 11.8046C4.3092 12.5913 5.31148 13.127 6.40262 13.3441C7.49376 13.5611 8.62476 13.4497 9.6526 13.024C10.6804 12.5982 11.5589 11.8773 12.177 10.9522C12.7951 10.0272 13.125 8.93967 13.125 7.82715C13.1233 6.33584 12.5301 4.90611 11.4756 3.85159C10.421 2.79708 8.99131 2.20389 7.5 2.20215Z" fill="#4D4D4D"/>
</svg>
