<svg width="55" height="55" viewBox="0 0 55 55" fill="none" xmlns="http://www.w3.org/2000/svg">
<rect x="0.5" y="0.5" width="54" height="54" rx="27" fill="#242B63"/>
<path d="M24.8855 15.95C25.6811 15.4931 26.5825 15.2527 27.5 15.2527C28.4175 15.2527 29.3189 15.4931 30.1145 15.95L42.8108 23.2405C42.9442 23.3172 43.055 23.4277 43.1321 23.5609C43.2092 23.6941 43.2497 23.8452 43.2497 23.9991C43.2497 24.153 43.2092 24.3042 43.1321 24.4374C43.055 24.5706 42.9442 24.6811 42.8108 24.7578L38 27.5175V35.375C38.0002 35.49 37.9777 35.6039 37.9339 35.7102C37.8901 35.8165 37.8257 35.9131 37.7445 35.9945L37.741 35.9963L37.7375 36.0015L37.7253 36.012L37.685 36.0505L37.545 36.18C37.4225 36.2885 37.2475 36.4373 37.0183 36.614C36.3897 37.0967 35.7218 37.5258 35.0215 37.8968C32.7053 39.1248 30.1216 39.7614 27.5 39.75C24.8783 39.7608 22.2945 39.1236 19.9785 37.895C19.2788 37.524 18.6115 37.0949 17.9835 36.6123C17.7526 36.4341 17.5296 36.2461 17.315 36.0488C17.2189 35.9642 17.1414 35.8607 17.0872 35.7448C17.0329 35.6288 17.0033 35.5029 17 35.375V27.521L13.5 25.5103V33.6233C13.5 33.8553 13.4078 34.0779 13.2437 34.242C13.0796 34.4061 12.8571 34.4983 12.625 34.4983C12.3929 34.4983 12.1704 34.4061 12.0063 34.242C11.8422 34.0779 11.75 33.8553 11.75 33.6233V24C11.7499 23.8429 11.7921 23.6887 11.8721 23.5535C11.9522 23.4183 12.0672 23.3072 12.205 23.2318L24.8873 15.95H24.8855ZM30.1145 32.0465C29.3189 32.5034 28.4175 32.7438 27.5 32.7438C26.5825 32.7438 25.6811 32.5034 24.8855 32.0465L18.75 28.5238V34.983C19.3872 35.5061 20.0748 35.9646 20.8028 36.3515C22.3428 37.174 24.609 37.9983 27.5 37.9983C29.8339 38.0103 32.1345 37.4452 34.1973 36.3533C34.9253 35.9658 35.6129 35.5068 36.25 34.983V28.522L30.1145 32.0465ZM29.243 17.469C28.7126 17.1644 28.1116 17.0041 27.5 17.0041C26.8884 17.0041 26.2874 17.1644 25.757 17.469L14.382 23.9983L25.757 30.5293C26.2874 30.8339 26.8884 30.9941 27.5 30.9941C28.1116 30.9941 28.7126 30.8339 29.243 30.5293L40.618 23.9983L29.243 17.469Z" fill="#E6E6E6"/>
<rect x="0.5" y="0.5" width="54" height="54" rx="27" stroke="#242B63"/>
</svg>
