<svg width="10" height="11" viewBox="0 0 10 11" fill="none" xmlns="http://www.w3.org/2000/svg">
<path d="M8.75009 2.91056H1.25009C1.17415 2.9108 1.09972 2.93174 1.03481 2.97113C0.969888 3.01053 0.916945 3.06688 0.881672 3.13412C0.846399 3.20137 0.830134 3.27696 0.834627 3.35276C0.83912 3.42856 0.864201 3.5017 0.90717 3.56431L4.65717 8.98098C4.81259 9.20556 5.18675 9.20556 5.34259 8.98098L9.09259 3.56431C9.13599 3.50183 9.16145 3.42866 9.16618 3.35273C9.17092 3.2768 9.15476 3.20103 9.11946 3.13364C9.08415 3.06625 9.03105 3.00983 8.96593 2.9705C8.90081 2.93117 8.82616 2.91044 8.75009 2.91056Z" fill="#4D4D4D"/>
</svg>
