<svg width="55" height="55" viewBox="0 0 55 55" fill="none" xmlns="http://www.w3.org/2000/svg">
<rect width="55" height="55" rx="27.5" fill="#242B63"/>
<path d="M39.1666 40.625V37.7083C39.1666 36.1612 38.552 34.6775 37.458 33.5835C36.3641 32.4896 34.8803 31.875 33.3333 31.875H21.6666C20.1195 31.875 18.6358 32.4896 17.5418 33.5835C16.4478 34.6775 15.8333 36.1612 15.8333 37.7083V40.625" stroke="#E6E6E6" stroke-width="2" stroke-linecap="round" stroke-linejoin="round"/>
<path d="M27.5001 26.0417C30.7217 26.0417 33.3334 23.43 33.3334 20.2083C33.3334 16.9867 30.7217 14.375 27.5001 14.375C24.2784 14.375 21.6667 16.9867 21.6667 20.2083C21.6667 23.43 24.2784 26.0417 27.5001 26.0417Z" stroke="#E6E6E6" stroke-width="2" stroke-linecap="round" stroke-linejoin="round"/>
</svg>
