<svg width="56" height="55" viewBox="0 0 56 55" fill="none" xmlns="http://www.w3.org/2000/svg">
<path d="M39.6667 20.2083H16.3334C14.7226 20.2083 13.4167 21.5142 13.4167 23.125V37.7083C13.4167 39.3192 14.7226 40.625 16.3334 40.625H39.6667C41.2776 40.625 42.5834 39.3192 42.5834 37.7083V23.125C42.5834 21.5142 41.2776 20.2083 39.6667 20.2083Z" stroke="#242B63" stroke-width="1.8" stroke-linecap="round" stroke-linejoin="round"/>
<path d="M33.8334 40.625V17.2917C33.8334 16.5181 33.5261 15.7763 32.9791 15.2293C32.4322 14.6823 31.6903 14.375 30.9167 14.375H25.0834C24.3099 14.375 23.568 14.6823 23.021 15.2293C22.474 15.7763 22.1667 16.5181 22.1667 17.2917V40.625" stroke="#242B63" stroke-width="1.8" stroke-linecap="round" stroke-linejoin="round"/>
<rect x="1" y="0.5" width="54" height="54" rx="27" stroke="#242B63"/>
</svg>
